<?xml version="1.0" encoding="UTF-8" standalone="no"?>
<!-- Generator: Adobe Illustrator 21.0.2, SVG Export Plug-In . SVG Version: 6.00 Build 0) -->

<svg
   xmlns:dc="http://purl.org/dc/elements/1.1/"
   xmlns:cc="http://creativecommons.org/ns#"
   xmlns:rdf="http://www.w3.org/1999/02/22-rdf-syntax-ns#"
   xmlns:svg="http://www.w3.org/2000/svg"
   xmlns="http://www.w3.org/2000/svg"
   xmlns:sodipodi="http://sodipodi.sourceforge.net/DTD/sodipodi-0.dtd"
   xmlns:inkscape="http://www.inkscape.org/namespaces/inkscape"
   id="Layer_1"
   x="0px"
   y="0px"
   viewBox="0 0 128 128"
   xml:space="preserve"
   version="1.1"
   inkscape:version="0.91 r13725"
   sodipodi:docname="goxcart.svg"
   width="128"
   height="128"
   inkscape:export-filename="/Users/andrew/Downloads/goxcart.png"
   inkscape:export-xdpi="90.046127"
   inkscape:export-ydpi="90.046127"><metadata
     id="metadata113"><rdf:RDF><cc:Work
         rdf:about=""><dc:format>image/svg+xml</dc:format><dc:type
           rdf:resource="http://purl.org/dc/dcmitype/StillImage" /><dc:title></dc:title></cc:Work></rdf:RDF></metadata><defs
     id="defs111" /><sodipodi:namedview
     pagecolor="#ffffff"
     bordercolor="#666666"
     borderopacity="1"
     objecttolerance="10"
     gridtolerance="10"
     guidetolerance="10"
     inkscape:pageopacity="0"
     inkscape:pageshadow="2"
     inkscape:window-width="1440"
     inkscape:window-height="856"
     id="namedview109"
     showgrid="false"
     inkscape:zoom="5.109375"
     inkscape:cx="88.464832"
     inkscape:cy="64"
     inkscape:window-x="0"
     inkscape:window-y="0"
     inkscape:window-maximized="1"
     inkscape:current-layer="Layer_1" /><style
     type="text/css"
     id="style3"> .st0{fill-rule:evenodd;clip-rule:evenodd;fill:#FFCD67;} .st1{fill-rule:evenodd;clip-rule:evenodd;fill:#FAF39B;} .st2{fill:#F89635;} .st3{fill:#F89635;stroke:#000000;stroke-width:0.1463;} .st4{fill:#FFFBD2;} .st5{fill:#FFCD67;} .st6{fill:#FAF39B;} </style><g
     id="g4292"
     transform="matrix(0,-1.4253898,-1.4253898,0,138.47662,133.70156)"><path
       class="st0"
       d="m 10.6,31 4.2,-3.6 2.7,-4.9 c 0,0 2.9,-4.1 3.6,-4.9 0.7,-0.8 3.5,-3 5,-3.6 1.5,-0.6 8.2,-2.8 11.1,-2.7 2.8,0.1 12.3,0.5 15.2,0.9 2.9,0.5 10.1,2.5 11.9,3.5 1.7,1.1 9.7,6.5 11.5,8.3 1.8,1.8 9,11.4 10.2,13.1 1,1.7 5,11.9 5.5,13.8 0.5,1.9 1.3,8.3 0.1,11.4 -1.2,3.1 -3.1,8.3 -5.1,11.1 -2,2.7 -6.5,7.1 -6.5,7.1 l -3.7,4 -2.1,3.7 -3.3,2.2 -5.2,1.9 -9.6,1 -5.9,-0.7 c 0,0 -9.2,-2.1 -11.1,-2.8 -1.9,-0.7 -10.8,-4 -12.5,-5.2 -1.8,-1.3 -7.7,-7.3 -7.7,-7.3 L 12.3,68 7.2,58.9 5.3,50.2 C 5.3,50.2 4.7,44.7 5,43.3 5.3,42 6.9,37.7 6.9,37.7 L 9,33.9 10.6,31 Z"
       id="path7"
       inkscape:connector-curvature="0"
       style="clip-rule:evenodd;fill:#ffcd67;fill-rule:evenodd" /><path
       class="st1"
       d="M 13.2,69.7 8.7,61.9 6.2,55.3 c 0,0 -1,-7.2 -1.3,-8.3 -0.2,-1.1 -0.4,-4.2 0,-5.1 0.3,-1 1.2,-4 1.2,-4 l 2.7,-3.5 3,-4.5 3.3,-3.7 4.5,-5.9 -2.2,11.5 0.6,1.7 c 0,0 2.9,9.4 3.7,12.4 0.9,3 7.3,12.3 7.3,12.3 l 4.9,5.3 7.1,5.6 -3,5.3 -4.3,7.4 -3.2,4.7 -5.8,-3.8 -5.9,-5.5 -4.2,-5 -1.4,-2.5 z"
       id="path9"
       inkscape:connector-curvature="0"
       style="clip-rule:evenodd;fill:#faf39b;fill-rule:evenodd" /><path
       class="st2"
       d="m 39.4,30.8 c 0,0 -3.2,-2.5 -4.5,-3.4 -1.3,-1 1.3,0.9 1.3,0.9 l -2.6,-1.9 c 0,0 -1.5,-2.5 -1.3,-3.5 0.2,-1 1.1,-2 2.4,-2.7 1.4,-0.6 4.9,-2 6.5,-2.4 1.5,-0.3 2.6,-0.2 3.3,0.7 0.7,1 1.1,2.5 1.3,4.2 0.2,1.7 0.5,3.4 0.5,3.4 0,0 -6.5,3.7 -6.9,4.7 z"
       id="path11"
       inkscape:connector-curvature="0"
       style="fill:#f89635" /><path
       d="m 38.8,31.6 c 0,0 -3.2,-2.5 -4.5,-3.4 l 0,0 c 0,0 0,0 -0.1,-0.1 l 0,0 C 34.1,28.1 34.1,28 34.1,28 l 0,0 C 34,28 33.9,27.9 33.8,27.8 l 0,0 c 0,0 0,0 -0.1,0 l 0,0 c 0,-0.1 -0.1,-0.1 -0.1,-0.2 l 0,0 -1,-0.7 c 0,-0.1 -1.4,-2.1 -1.5,-3.8 l 0,0 c 0,-0.1 0,-0.3 0.1,-0.5 l 0,0 c 0.3,-1.4 1.4,-2.6 3,-3.4 l 0,0 c 1.5,-0.6 4.9,-2.1 6.7,-2.5 l 0,0 c 0.6,-0.1 1.1,-0.2 1.6,-0.2 l 0,0 c 1,0 2.1,0.4 2.8,1.3 l 0,0 c 1,1.3 1.3,3 1.5,4.8 l 0,0 c 0.2,1.6 0.5,3.3 0.5,3.3 l 0,0 0.2,0.8 -0.7,0.4 c 0,0 -5.9,3.3 -6.5,4.1 l 0,0 0,0 -0.5,1.2 -1,-0.8 0,0 z m 0.6,-0.8 0.6,-0.9 -0.6,0.9 0,0 z m -0.1,-1.4 c 1.6,-1.4 4.5,-3 5.9,-3.7 l 0,0 C 45,25 44.9,24 44.7,22.9 l 0,0 c -0.2,-1.6 -0.6,-3.1 -1.1,-3.7 l 0,0 c -0.4,-0.4 -0.5,-0.5 -1.1,-0.5 l 0,0 c -0.3,0 -0.7,0.1 -1.1,0.2 l 0,0 c -1.4,0.3 -4.9,1.7 -6.3,2.3 l 0,0 c -1,0.5 -1.6,1.2 -1.9,2 l 0,0 c 0,0 0,0 0,0.1 l 0,0 c 0,0.5 0.9,2.3 0.9,2.4 l 0,0 0.7,0.5 c 0.1,0 0.2,0.1 0.3,0.2 l 0,0 0,0 c 0,0 0,0 0,0 l 0,0 c 0.1,0 0.1,0.1 0.3,0.2 l 0,0 c 0.1,0.1 0.2,0.2 0.4,0.3 l 0,0 0.4,0.3 c 0.3,0.2 0.5,0.4 0.5,0.4 l 0,0 0,0 c 1,0.5 2,1.3 2.6,1.8 l 0,0 z"
       id="path13"
       inkscape:connector-curvature="0" /><path
       class="st2"
       d="m 28.5,30.5 5.3,5.2 1.9,2.8 c 0,0 0.5,0.8 0.2,1.7 -0.2,0.9 -0.8,1.3 -0.8,1.3 0,0 -3.4,1.3 -4.5,1.5 -1.1,0.2 -2.7,0.1 -3.6,-0.4 -0.9,-0.5 -1.8,-1.2 -1.8,-2.8 -0.1,-1.6 0.5,-4.4 0.5,-4.4 0,0 0.6,-4.6 2.8,-4.9 z"
       id="path15"
       inkscape:connector-curvature="0"
       style="fill:#f89635" /><path
       d="m 26.5,43.4 c -0.9,-0.5 -2.3,-1.6 -2.3,-3.6 l 0,0 c 0,0 0,-0.1 0,-0.3 l 0,0 c 0,-1.8 0.6,-4.3 0.6,-4.4 l 0,0 c 0.2,0 0.1,-4.7 3.5,-5.7 l 0,0 0.5,-0.1 5.8,5.8 2,2.9 c 0.1,0.1 0.4,0.7 0.4,1.7 l 0,0 c 0,0.3 0,0.5 -0.1,0.8 l 0,0 c -0.3,1.2 -1.1,1.8 -1.4,2 l 0,0 c 0,0 -3.3,1.3 -4.7,1.5 l 0,0 c -0.4,0.1 -0.9,0.1 -1.3,0.1 l 0,0 c -1,0 -2.1,-0.1 -3,-0.7 l 0,0 z m 0.3,-7.9 c 0,0 -0.5,2.6 -0.5,4 l 0,0 c 0,0 0,0 0,0.2 l 0,0 c 0.1,1.1 0.5,1.4 1.3,1.9 l 0,0 c 0.3,0.2 1.1,0.4 1.9,0.4 l 0,0 c 0.4,0 0.7,0 1,-0.1 l 0,0 c 0.8,-0.1 3.7,-1.2 4,-1.2 l 0,0 c 0,0 0.3,-0.3 0.4,-0.8 l 0,0 c 0,-0.1 0,-0.2 0.1,-0.3 l 0,0 c 0,-0.3 -0.1,-0.5 -0.1,-0.5 l 0,0 -1.9,-2.6 -4.8,-4.7 c -0.7,0.7 -1.4,3.6 -1.4,3.7 l 0,0 z m -2,-0.3 0,0 0,0 z"
       id="path17"
       inkscape:connector-curvature="0" /><path
       class="st2"
       d="m 51.4,25.7 c 0,0 4.5,2 6.1,2.9 1.6,1 3.8,3.6 4.9,4.4 1,0.8 1.1,2.1 1.1,2.1 l 11.1,-3.3 c 0,0 -7.2,-6.9 -10.6,-9 -3.4,-2.2 -9,-4.3 -9.9,-4.8 -0.9,-0.4 -2,-0.3 -2.1,0.1 -0.1,0.4 0.1,3.7 0.1,3.7 L 51.5,25"
       id="path19"
       inkscape:connector-curvature="0"
       style="fill:#f89635" /><path
       d="m 62.4,35.1 c 0,0 -0.1,-0.9 -0.7,-1.3 l 0,0 c -1.2,-1 -3.4,-3.5 -4.7,-4.3 l 0,0 c -1.4,-0.8 -5.8,-2.8 -6,-2.8 l 0,0 0.7,-1.7 -1.2,-0.2 0.6,-2.9 c 0,0 -0.2,-2.1 -0.2,-3.3 l 0,0 c 0,-0.3 0,-0.5 0.1,-0.8 l 0,0 c 0.5,-1.2 1.3,-1.1 1.9,-1.2 l 0,0 c 0.5,0 1.1,0.1 1.7,0.4 l 0,0 c 0.8,0.4 6.5,2.6 10,4.8 l 0,0 c 3.5,2.3 10.7,9.1 10.7,9.1 l 0,0 1.3,1.3 -14.2,4.2 0,-1.3 0,0 z M 58,27.7 c 1.9,1.1 4.1,3.8 5,4.4 l 0,0 c 0.6,0.5 1,1.1 1.2,1.6 l 0,0 8.3,-2.5 c -2.3,-2.1 -6.8,-6.1 -9.1,-7.6 l 0,0 c -3.2,-2.1 -8.8,-4.2 -9.7,-4.7 l 0,0 C 53.5,18.8 53.2,18.7 53,18.7 l 0,0 c 0,1 0.2,2.9 0.1,3.2 l 0,0 -0.6,3.1 c 1.5,0.7 4.3,2 5.5,2.7 l 0,0 z m -7,-1 0,0 0,0 0,0 0,0 0,0 z"
       id="path21"
       inkscape:connector-curvature="0" /><path
       class="st2"
       d="M 33.1,49.9 40,47.8 c 0,0 2.8,2.1 4.3,3.1 1.5,0.9 6.5,4 6.5,4 0,0 1.5,0.1 1.7,1.1 0.2,1 -0.3,3.5 -0.3,3.5 L 51.7,62 c 0,0 -1,0.3 -1.9,-0.2 -0.9,-0.5 -8.9,-3.5 -10.9,-5 -1.8,-1.5 -6,-4.1 -5.8,-6.9 z"
       id="path25"
       inkscape:connector-curvature="0"
       style="fill:#f89635" /><path
       d="m 49.3,62.7 c -0.6,-0.4 -8.7,-3.4 -11,-5.1 l 0,0 C 36.6,56.1 32.1,53.8 31.9,50 l 0,0 c 0,0 0,-0.1 0.1,-0.5 l 0,0 0.2,-0.5 7.9,-2.5 0.4,0.3 c 0,0 2.8,2.2 4.2,3.1 l 0,0 c 1.2,0.8 5.4,3.4 6.3,3.9 l 0,0 c 0.6,0.1 1.9,0.2 2.4,1.9 l 0,0 c 0.1,0.3 0.1,0.5 0.1,0.7 l 0,0 c 0,1.3 -0.3,3.1 -0.3,3.1 l 0,0 -0.6,3.2 L 52,63 c -0.1,0 -0.5,0.1 -1,0.1 l 0,0 c -0.5,0 -1.1,-0.1 -1.7,-0.4 l 0,0 z m -9.7,-6.8 c 1.6,1.3 9.6,4.3 10.7,4.9 l 0,0 c 0.1,0.1 0.3,0.1 0.4,0.1 l 0,0 0.3,-1.8 c 0,0 0.3,-1.7 0.3,-2.7 l 0,0 c 0,-0.2 0,-0.3 0,-0.3 l 0,0 c 0,0 0,0 -0.3,-0.1 l 0,0 c -0.3,-0.1 -0.5,-0.1 -0.5,-0.1 l 0,0 -0.3,0 -0.2,-0.1 c 0,0 -5.1,-3.1 -6.6,-4 l 0,0 c -1.2,-0.8 -3,-2.2 -3.9,-2.9 l 0,0 -5.6,1.7 c 0.8,1.8 3.9,4 5.7,5.3 l 0,0 z"
       id="path27"
       inkscape:connector-curvature="0" /><path
       class="st2"
       d="m 59.7,55.1 6,-2.9 8.4,4.9 c 0,0 3.5,2.2 3.5,2.9 0,0.7 0.1,1.6 -0.9,1.9 -1,0.3 -7,2.6 -7,2.6 0,0 -3.7,0.4 -4.9,0.5 -1.3,0.1 -3,-0.2 -3.5,-1.1 -0.5,-1 -0.9,-4.1 -0.9,-4.1 l -0.7,-4.7 z"
       id="path29"
       inkscape:connector-curvature="0"
       style="fill:#f89635" /><path
       d="m 64.4,66 c -1.3,-0.1 -3.1,-0.1 -4.1,-1.7 l 0,0 c -0.6,-1.4 -0.9,-4.4 -1,-4.4 l 0,0 -0.7,-4.6 1,-0.2 0.5,0.9 -0.5,-0.9 -1,0.2 -0.1,-0.8 7.2,-3.6 8.9,5.3 c 0,0 0.9,0.5 1.8,1.2 l 0,0 c 0.9,0.8 1.8,1 2.2,2.6 l 0,0 c 0,0.1 0,0.2 0,0.4 l 0,0 c 0.1,0.7 -0.3,2.1 -1.6,2.5 l 0,0 c -0.9,0.3 -7,2.5 -7.2,2.6 l 0,0 c 0,0 -3.7,0.4 -5,0.5 l 0,0 c -0.1,0 -0.1,0 -0.1,0 l 0,0 c -0.1,0 -0.2,0 -0.3,0 l 0,0 z m -2.9,-6.5 c 0,0 0.5,3.2 0.8,3.8 l 0,0 c 0,0.1 1,0.6 2.1,0.5 l 0,0 c 0.1,0 0.2,0 0.3,0 l 0,0 c 1.2,-0.1 4.9,-0.5 4.6,-0.4 l 0,0 c 0,0 6,-2.2 7,-2.6 l 0,0 c 0.3,-0.1 0.2,0 0.2,-0.5 l 0,0 c 0,0 0,-0.1 0,-0.1 l 0,0 C 76.4,60.1 76.4,60.1 76.3,60 l 0,0 C 76,59.7 75.6,59.4 75.2,59.1 l 0,0 C 74.4,58.5 73.5,58 73.5,58 l 0,0 -7.9,-4.7 -4.8,2.3 0.7,3.9 0,0 z"
       id="path31"
       inkscape:connector-curvature="0" /><path
       class="st2"
       d="m 69.1,45.4 9.2,5.1 c 0,0 1.8,1.9 2.4,0.7 0.7,-1.1 0.7,-3.6 0.7,-5 -0.1,-1.4 -1.1,-7.5 -1.1,-7.5 0,0 -0.6,-1.5 -1.5,-1.5 -0.9,0 -1.8,0.4 -3.7,1 -1.8,0.6 -5.5,1.9 -5.5,1.9 0,0 -0.4,4.2 -0.5,5.3 z"
       id="path33"
       inkscape:connector-curvature="0"
       style="fill:#f89635" /><path
       d="m 80.1,52.7 c -1.4,-0.1 -2.2,-1.1 -2.3,-1.2 l 0,0 L 68.7,46.4 68,46 68.1,45.3 C 68.2,44.1 68.6,40 68.6,40 l 0,0 0.1,-0.7 0.6,-0.2 c 0,0 3.7,-1.3 5.5,-1.9 l 0,0 c 1.8,-0.6 2.9,-1 4,-1.1 l 0,0 0,0 c 0,0 0,0 0,0 l 0,0 0,0 c 2.1,0.3 2.3,2.1 2.5,2.4 l 0,0 c 0,0 1.1,6 1.2,7.7 l 0,0 c 0,0.2 0,0.5 0,0.9 l 0,0 c 0,1.5 -0.1,3.3 -0.8,4.7 l 0,0 c -0.4,0.5 -1,0.9 -1.6,0.9 l 0,0 c 0,0 0,0 0,0 l 0,0 z m -0.6,-2.5 c 0.1,0.1 0.3,0.2 0.4,0.3 l 0,0 c 0.3,-0.7 0.4,-2.2 0.4,-3.4 l 0,0 c 0,-0.3 0,-0.6 0,-0.8 l 0,0 c 0,-1.2 -1.1,-7 -1.1,-7.2 l 0,0 c 0,0 -0.3,-0.7 -0.6,-0.9 l 0,0 c -0.6,0.1 -1.5,0.3 -3.2,1 l 0,0 c -1.4,0.5 -3.7,1.3 -4.8,1.7 l 0,0 c -0.1,1 -0.3,2.8 -0.4,3.9 l 0,0 8.8,4.9 0,0 0,0 c 0,0.1 0.3,0.3 0.5,0.5 l 0,0 z"
       id="path35"
       inkscape:connector-curvature="0" /><path
       class="st4"
       d="m 5.6,42.1 c 0,0 1,-3.5 1.2,-4.5 0.2,-1 1.4,-3.3 2.3,-3.9 0.8,-0.6 2.8,-3.7 2.8,-3.7 l 2.3,-3.1 2,-2.7 2.2,-2.4 -0.4,4.4 -0.5,2.2 -1.5,-0.1 c 0,0 -1.2,1.2 -2.3,2.7 -1.1,1.5 -4.3,6.2 -4.3,6.2 l -2,3.8 -2.2,3"
       id="path37"
       inkscape:connector-curvature="0"
       style="fill:#fffbd2" /><path
       class="st5"
       d="M 9,48.4 C 9,48.4 7.3,49 7,48 6.7,47 6.9,46.3 7.6,45.1 c 0.7,-1.2 2.4,-4 2.4,-4 l 3.8,-5.7 c 0,0 0.4,-1.6 1.5,-1.6 1.1,-0.1 1.8,-0.8 2.1,0.2 0.3,1 -0.3,2.3 -0.3,2.3 l -3,3.4 -3,4.1 -2.1,4.6 z"
       id="path39"
       inkscape:connector-curvature="0"
       style="fill:#ffcd67" /><path
       class="st5"
       d="m 8.9,54.2 c 0,0 -1.4,-0.2 -1.3,-1.1 0.1,-0.9 1,-2.9 1,-2.9 l 4.3,-5.8 c 0,0 2.3,-3.2 3.3,-3.7 1,-0.5 1.5,-1.1 2,-0.4 0.4,0.7 1.1,1.5 1.1,1.5 l 0.3,1.4 -0.2,1 -7.2,9.4 -2.7,4 -1.7,0.8 -0.4,-2 c 0,0.2 -0.4,-0.5 1.5,-2.2 z"
       id="path41"
       inkscape:connector-curvature="0"
       style="fill:#ffcd67" /><polyline
       class="st5"
       points="9.8,61.6 13.4,57.5 19.4,49.7 21.6,47.5 21.4,50.3 22.4,52.4 20.1,56.7 14.3,64.9 12.3,67.3 11.2,65.6 13.6,61.6 14.2,60.1 11.5,62.6 10.3,63.5 10,62.6 "
       id="polyline43"
       style="fill:#ffcd67" /><path
       class="st5"
       d="m 15.8,73.1 c 0,0 -1.2,-1 -0.4,-2.3 0.8,-1.3 1.3,-2.2 1.3,-2.2 0,0 -1.1,-0.4 0.1,-2.4 1.2,-2 4.7,-5.9 4.7,-5.9 l 3,-3.3 0.1,-1.4 -1.3,-4 -0.8,-2.8 -0.4,-2.1 c 0,0 0.8,-0.7 1.7,-0.5 0.9,0.2 2.1,1.6 2.4,3 0.4,1.4 3,4.7 3,4.7 l 0.9,1.5 -4.6,5.3 c 0,0 -5.7,7.9 -6.1,8.2 -0.4,0.5 -3.6,4.2 -3.6,4.2 z"
       id="path45"
       inkscape:connector-curvature="0"
       style="fill:#ffcd67" /><path
       class="st5"
       d="m 19.9,77.8 3.4,-3.3 1.9,-2.4 0.3,1.4 -3,4.4 c 0,0 0.2,0.8 0.6,1.4 0.5,0.6 1.1,2.4 1.9,1.8 0.8,-0.6 2.3,-2.1 2.3,-2.1 l 0.5,1.6 -1.5,3.4 -2.5,-2.5 -2.9,-2.2"
       id="path47"
       inkscape:connector-curvature="0"
       style="fill:#ffcd67" /><path
       class="st6"
       d="m 25.6,58.2 c 0,0 1.7,3.8 3.8,4.9 2,1.1 4.4,3.1 4.4,3.1 0,0 2.8,2.2 3.8,2.7 1,0.5 3.1,1.7 3.5,1.7 0.4,0 2.2,1.8 2.2,1.8 l 3.5,1.1 c 0,0 3.6,1.7 4.8,2.3 1.2,0.5 5.3,1.6 5.3,1.6 0,0 3.3,0.4 4.4,0.4 1.1,-0.1 7.5,-1.1 7.5,-1.1 l 0.9,-2.2 -8.8,0.6 c 0,0 -6.6,-0.7 -8.3,-1.8 -1.7,-1.1 -9.9,-4.8 -11.5,-5.8 -1.6,-1.1 -2.3,-2.6 -2.3,-2.6 0,0 -1.1,-2.2 -2,-2.5 -0.9,-0.3 -2.8,-1.9 -2.8,-1.9 0,0 -1.8,-1.2 -1.8,-1.8 0,-0.6 -0.2,-1.6 -0.2,-1.6 l -1.8,-1.5 -1,-1.6 -2.3,-1.3 -0.8,1.8 0.9,2.1"
       id="path49"
       inkscape:connector-curvature="0"
       style="fill:#faf39b" /><polyline
       class="st2"
       points="33.1,84 32.6,82.3 34.4,78.5 39.3,72.2 40.5,71 41,70.6 "
       id="polyline51"
       style="fill:#f89635" /><polygon
       class="st2"
       points="38.5,87.5 36.9,87.4 41.1,81.8 45.7,75.7 46.6,76.2 40.9,83.8 "
       id="polygon53"
       style="fill:#f89635" /><path
       class="st2"
       d="m 44.2,87.7 2.7,-4.1 3.5,-4.1 2.4,-3.7 1,0.2 -3.2,4.5 -3.9,5.5 -2.2,2.8 c 0,0 -0.4,0.2 -0.3,-1.1 z"
       id="path55"
       inkscape:connector-curvature="0"
       style="fill:#f89635" /><polyline
       class="st2"
       points="48,91.7 50.4,90.3 52,88.1 55,83.4 57.1,80.5 58.5,80 54.3,85.7 52.5,89.5 50.9,92.5 48.8,92.5 "
       id="polyline57"
       style="fill:#f89635" /><polyline
       class="st2"
       points="60.2,88.8 62.5,84 64.4,80.5 65.6,80.4 61.4,88.3 "
       id="polyline59"
       style="fill:#f89635" /><path
       class="st4"
       d="m 39.7,11.8 c 0,0 -4.4,-0.3 -6.7,0 -2.3,0.2 -5.5,1.2 -6.9,1.8 -1.4,0.6 -3.9,2.6 -4.7,3.6 -0.8,1 -2.7,3 -3.1,4.4 -0.4,1.5 -1.1,5.3 -1.1,5.3 l -0.3,6.6 c 0,0 0,0.7 0.7,0.5 0.7,-0.2 2.3,-0.1 2.3,-0.1 0,0 -0.1,-2 -0.2,-3.8 l 0,0 c 0,0 1.5,-5.6 2.5,-7.7 1.1,-2 2.3,-3.7 3.2,-4.4 0.5,-0.4 1.4,-1.1 2.3,-1.8 2.9,-1.3 7.9,-2.6 7.9,-2.6 l 5.8,-0.7 0.5,-1 -2.2,-0.1 z"
       id="path61"
       inkscape:connector-curvature="0"
       style="fill:#fffbd2" /><path
       class="st4"
       d="m 43.2,40 c 0,0 0.5,1.1 -0.1,1.6 -0.6,0.5 -1.6,0.2 -1.6,0.2 0,0 -1.1,-2.8 -0.9,-4.1 0.2,-1.3 0.7,-3.2 2.2,-4.2 1.5,-1.1 4.1,-2 5.9,-2 1.9,0.1 3.3,-0.1 4.1,0.4 0.9,0.5 1.4,1.5 1.4,2.1 0,0.6 -0.7,1 -0.7,1 0,0 -1.7,-0.4 -2.6,-0.6 -0.9,-0.2 -3.7,-0.7 -4.8,0.1 -1.1,0.8 -2.1,0.7 -2.3,2.5 -0.1,1.9 -0.6,3 -0.6,3 z"
       id="path63"
       inkscape:connector-curvature="0"
       style="fill:#fffbd2" /><path
       class="st4"
       d="m 18.6,41.3 c 0,0 -1.3,-0.8 -1.2,-1.5 0.1,-0.7 -0.2,-1.8 0.5,-2.3 0.7,-0.5 1.8,-0.5 2.1,0.6 0.3,1.1 0.8,2.2 0.4,2.8 -0.3,0.6 -1.8,0.4 -1.8,0.4 z"
       id="path65"
       inkscape:connector-curvature="0"
       style="fill:#fffbd2" /><path
       class="st4"
       d="m 20.9,44.5 c 0,0 -1.1,0.6 -1.4,0.2 -0.3,-0.4 -0.8,-1.3 -0.4,-1.8 0.4,-0.6 0.5,-0.7 1.1,-0.2 0.7,0.5 0.7,1.8 0.7,1.8 z"
       id="path67"
       inkscape:connector-curvature="0"
       style="fill:#fffbd2" /><path
       class="st4"
       d="m 22.8,49.4 -1.1,-2.1 c 0,0 -0.2,-0.9 0.2,-1.3 0.4,-0.4 0.7,-0.9 1.1,-0.1 0.5,0.8 0.8,1.1 0.6,1.8 0,0.8 -0.8,1.7 -0.8,1.7 z"
       id="path69"
       inkscape:connector-curvature="0"
       style="fill:#fffbd2" /><path
       class="st4"
       d="m 24.3,55.2 c 0,0 -0.7,-1 -0.3,-1.4 0.4,-0.4 0.8,-0.6 1.5,-0.5 0.7,0.1 1.2,0.7 1,1.2 -0.1,0.6 -0.7,0.7 -0.7,0.7 l -1.5,0 z"
       id="path71"
       inkscape:connector-curvature="0"
       style="fill:#fffbd2" /><path
       class="st4"
       d="m 34.5,43.4 c 0,0 -1.3,-1.1 -0.6,-1.4 0.7,-0.3 1.3,-0.8 1.4,-0.1 0.2,0.7 -0.1,1.3 -0.1,1.3 l -0.7,0.2 z"
       id="path73"
       inkscape:connector-curvature="0"
       style="fill:#fffbd2" /><path
       class="st4"
       d="M 36.9,42.4 36.3,41.6 36.1,41 c 0,0 0,-0.9 0.7,-0.8 0.7,0.1 1.5,1.8 1.5,1.8 0,0 -0.7,0.4 -1.4,0.4 z"
       id="path75"
       inkscape:connector-curvature="0"
       style="fill:#fffbd2" /><path
       class="st4"
       d="m 60.4,44.1 -0.7,-0.8 0.2,-1.6 c 0,0 0.7,-0.9 1.1,-0.5 0.5,0.4 0.7,0.7 0.6,1.4 -0.1,0.7 -1.2,1.5 -1.2,1.5 z"
       id="path77"
       inkscape:connector-curvature="0"
       style="fill:#fffbd2" /><path
       class="st4"
       d="m 60.1,47.4 c 0,0 -1.1,0.3 -1.2,-0.2 0,-0.6 0.2,-1.4 0.9,-1.6 0.7,-0.2 2,-0.7 2.3,0.1 0.3,0.7 -0.1,1.4 -0.1,1.4 l -1.9,0.3 z"
       id="path79"
       inkscape:connector-curvature="0"
       style="fill:#fffbd2" /><path
       class="st4"
       d="m 52.5,54 -1,-0.3 c 0,0 -0.6,-1.4 0.4,-1.6 1,-0.2 1.6,-0.4 2.2,0.3 0.6,0.7 1.1,1.4 0.8,1.8 -0.3,0.4 -1,0.5 -1,0.5 L 52.5,54 Z"
       id="path81"
       inkscape:connector-curvature="0"
       style="fill:#fffbd2" /><path
       class="st4"
       d="m 36.6,67 c 0,0 -1.4,-0.2 -1.9,-0.5 -0.4,-0.2 -1.2,-0.8 -0.9,-1.8 0.2,-1 0.1,-2 1.5,-1.8 1.4,0.2 2.2,0.8 2.3,1.6 0.2,0.9 -0.4,1.9 -0.4,1.9 L 36.6,67 Z"
       id="path83"
       inkscape:connector-curvature="0"
       style="fill:#fffbd2" /><path
       class="st4"
       d="m 51.8,63.6 c 0,0 0.1,-1.6 0.5,-1.6 0.4,0 1,0.4 1.2,1.1 0.2,0.7 -0.1,1.4 -0.1,1.4 l -1,-0.1 -0.6,-0.8 z"
       id="path85"
       inkscape:connector-curvature="0"
       style="fill:#fffbd2" /><path
       class="st4"
       d="m 39.7,70.9 c 0,0 -1.9,-1.3 -1.5,-1.9 0.4,-0.6 1.4,-1.6 1.4,-1.6 0,0 1,-0.2 1.6,0.4 0.6,0.5 0.8,1.7 0.8,1.7 l -0.7,0.7 -1.6,0.7 z"
       id="path87"
       inkscape:connector-curvature="0"
       style="fill:#fffbd2" /><path
       class="st4"
       d="m 46.3,72.6 c 0,0 -1,0.6 -1.7,0.5 C 43.9,73 43.7,71.7 43.7,71.7 L 45,69.6 c 0,0 0.9,0.6 1.6,0.7 0.7,0.1 0.7,0.1 0.7,0.1 l -1,2.2 z"
       id="path89"
       inkscape:connector-curvature="0"
       style="fill:#fffbd2" /><path
       class="st4"
       d="m 48.2,74.3 -0.6,-0.7 0.6,-2 c 0,0 1,-0.5 1.6,0.1 0.6,0.5 0.2,1.6 0.2,1.6 L 48.9,75 48.2,74.3 Z"
       id="path91"
       inkscape:connector-curvature="0"
       style="fill:#fffbd2" /><path
       class="st4"
       d="m 52.1,76.3 -0.9,-0.4 c 0,0 0.6,-1.3 0.9,-2.2 0.2,-0.8 0.2,-0.8 0.2,-0.8 l 1.4,0.8 1.6,0.2 c 0,0 -0.4,1.4 -1.2,2.1 -0.8,0.6 -0.8,0.6 -0.8,0.6 l -1.2,-0.3 z"
       id="path93"
       inkscape:connector-curvature="0"
       style="fill:#fffbd2" /><path
       class="st4"
       d="m 58,77 c 0,0 -1.4,0.6 -1.4,-0.2 0,-0.9 0.7,-2.5 0.7,-2.5 l 2.3,0.2 c 0,0 9.4,-0.2 12.3,-1.3 2.9,-1.1 9.4,-2.2 11.8,-4.3 2.3,-2.1 4.1,-4.6 4.1,-4.6 l 2.5,-5.1 c 0,0 1.3,-0.2 0,3.7 -1.3,3.9 -2.1,7.2 -2.1,7.2 l -4,5.9 -4.2,4.3 -2.8,2.1 -1.2,-1.2 3.1,-3.5 4.6,-5.3 -1.9,-0.1 c 0,0 -3.2,0.6 -5.7,2.1 -2.5,1.5 -7.3,2 -9.4,2.6 -2.1,0.7 -5.2,0.8 -5.8,0.8 C 60.3,77.8 58,77 58,77 Z"
       id="path95"
       inkscape:connector-curvature="0"
       style="fill:#fffbd2" /><path
       class="st4"
       d="m 85,63 1.4,-2.9 1.6,-2.8 0.5,-1 c 0,0 0.4,0 0.3,1.3 -0.1,1.3 -1,3.3 -1,3.3 0,0 -0.8,1.5 -1.4,2.1 -0.6,0.6 -1.4,1.2 -1.4,1.2 0,0 -0.1,-0.2 0,-1.2 z"
       id="path97"
       inkscape:connector-curvature="0"
       style="fill:#fffbd2" /><polyline
       class="st6"
       points="55.9,92.4 53.3,92.8 50.6,92.6 53.8,87.6 58.4,81.2 59.4,79.7 62.9,79.8 63.6,79.7 60.4,85.2 58.9,89.8 59.4,92.4 59.2,93.4 57.6,92.9 "
       id="polyline99"
       style="fill:#faf39b" /><polyline
       class="st6"
       points="65.1,92.3 62.7,92.3 61.7,91.5 64.2,86.4 66.9,80.5 68.1,78.3 71.5,77.5 72.9,77.4 67.9,88.5 66.7,92 "
       id="polyline101"
       style="fill:#faf39b" /><path
       class="st6"
       d="m 71.9,90.6 -2.2,0.4 -1.1,0.2 c 0,0 -3.1,1.4 -2.7,-0.7 0.3,-2.2 2.3,-6.4 2.3,-6.4 l 3.5,-5.9 2.1,-1.4 3.7,-1.1 2.8,-1 1.3,0.4 -2.4,3.6 0.1,2 -3.3,3.7 -2.5,3.6 -0.2,1.6 -1.4,1 z"
       id="path103"
       inkscape:connector-curvature="0"
       style="fill:#faf39b" /><path
       class="st6"
       d="m 51.3,92 1.8,-2.4 4.7,-0.2 5.1,-0.5 7.5,-1.7 3.6,-2.6 2,-0.2 c 0,0 -0.5,0.9 -1.2,2.5 -0.7,1.6 -0.9,2.3 -2,2.9 -1.1,0.6 -9.1,2.8 -11,3 -1.8,0.2 -9.4,0.5 -10.5,0.1"
       id="path105"
       inkscape:connector-curvature="0"
       style="fill:#faf39b" /><path
       d="M 30,87.3 C 8.1,74.1 4.9,55.2 4.4,51.1 l 0,0 C 4.1,48.7 4,44.6 4,41.7 l 0,0 c 0,-2 0,-3.4 0,-3.4 l 0,0 L 4,38 4.2,37.8 C 4.5,37.7 20.8,14.1 25.8,12.6 l 0,0 0,0 c 0.7,-0.2 8.4,-2.3 18.1,-2.3 l 0,0 c 10.6,0 23.8,2.5 32.5,13.1 l 0,0 c 11,13.4 17.3,23.2 17.4,32.9 l 0,0 c 0,4.8 -1.6,9.5 -4.9,14.4 l 0,0 C 79.3,85.2 73.4,90.6 73,90.8 l 0,0 c -0.1,0 -7.5,3.4 -18.1,3.4 l 0,0 c 0,0 -0.1,0 -0.1,0 l 0,0 C 47.6,94.2 38.9,92.6 30,87.3 l 0,0 z M 6.1,41.7 c 0,2.9 0.1,6.9 0.4,9.1 l 0,0 c 0.5,3.9 3.5,22 24.6,34.7 l 0,0 c 8.5,5.1 16.9,6.7 23.9,6.7 l 0,0 c 9.9,0 16.9,-3.1 17,-3.1 l 0,0 c 0.2,-0.2 5.9,-5.4 15.3,-19.5 l 0,0 c 3.1,-4.7 4.5,-8.9 4.5,-13.3 l 0,0 c 0,-8.7 -5.9,-18.2 -16.9,-31.5 l 0,0 C 66.7,14.8 54.3,12.4 44,12.4 l 0,0 c -9.8,0 -17.6,2.2 -17.6,2.2 l 0,0 -0.3,-1 0.2,1 c -1,0 -6.8,6.3 -11.3,12.3 l 0,0 C 10.8,32.2 7,37.5 6.2,38.7 l 0,0 c -0.1,0.5 -0.1,1.6 -0.1,3 l 0,0 z"
       id="path107"
       inkscape:connector-curvature="0" /><path
       class="st3"
       d="m 45.6,42.7 c 0,0 -1.2,-2.8 -1.1,-3.8 0.1,-1 1.1,-3.6 2.3,-4.1 1.1,-0.5 5.2,-0.3 7,0.6 1.7,0.9 4.6,3.9 5.1,4.8 0.6,0.8 1.1,1.5 0.6,3.1 -0.5,1.6 -0.2,1.9 -1.7,2.8 -1.5,0.9 -2.6,2 -3.8,1.9 -1.1,-0.1 -3.9,-1.3 -5.3,-2.2 -1.6,-1.1 -3.1,-3.1 -3.1,-3.1 z"
       id="path23"
       inkscape:connector-curvature="0"
       style="fill:#f89635;stroke:#000000;stroke-width:2;stroke-miterlimit:4;stroke-dasharray:none" /></g></svg>